<?xml version="1.0" encoding="UTF-8" standalone="no"?>
<!-- Created with Inkscape (http://www.inkscape.org/) -->

<svg
   width="81mm"
   height="38mm"
   viewBox="0 0 81 38"
   version="1.1"
   id="svg5"
   inkscape:version="1.1.1 (3bf5ae0d25, 2021-09-20)"
   sodipodi:docname="logo.svg"
   xmlns:inkscape="http://www.inkscape.org/namespaces/inkscape"
   xmlns:sodipodi="http://sodipodi.sourceforge.net/DTD/sodipodi-0.dtd"
   xmlns="http://www.w3.org/2000/svg"
   xmlns:svg="http://www.w3.org/2000/svg">
  <sodipodi:namedview
     id="namedview7"
     pagecolor="#505050"
     bordercolor="#ffffff"
     borderopacity="1"
     inkscape:pageshadow="0"
     inkscape:pageopacity="0"
     inkscape:pagecheckerboard="1"
     inkscape:document-units="mm"
     showgrid="false"
     inkscape:zoom="4.0000001"
     inkscape:cx="161.375"
     inkscape:cy="98.999997"
     inkscape:window-width="2560"
     inkscape:window-height="1476"
     inkscape:window-x="-12"
     inkscape:window-y="-12"
     inkscape:window-maximized="1"
     inkscape:current-layer="layer1" />
  <defs
     id="defs2" />
  <g
     inkscape:label="Layer 1"
     inkscape:groupmode="layer"
     id="layer1">
    <path
       id="path6289"
       style="fill:#333333;stroke-width:0.155568"
       d="m 32.408721,0.3307299 -0.06927,0.0679626 h -8.579628 c -7.513822,0 -8.59078,0.0293766 -8.670461,0.23394833 -0.05,0.12848071 -0.111629,0.51605917 -0.0052,0.64237747 0.169496,0.2012417 2.964491,0.050318 21.812081,0.050318 h 21.510165 l 0.09802,0.6005543 c 0.05363,0.3304484 0.201417,0.6406708 0.328704,0.6887751 0.337184,0.1274867 0.710993,-0.3147282 0.710993,-0.8410374 V 1.3181484 l 8.905718,0.041823 8.905718,0.042477 0.62996,0.4110433 c 1.196755,0.7804735 1.221363,0.9130405 1.272341,6.7844989 0.03548,4.0881044 0.0027,5.2212904 -0.156185,5.3455224 -0.110965,0.08673 -0.570109,0.275574 -1.020093,0.420192 -1.076023,0.345824 -2.257831,1.402032 -2.807377,2.508733 -0.556429,1.120543 -0.601293,2.825224 -0.102598,3.928111 0.601166,1.329518 2.051392,2.579508 3.286383,2.832862 0.274193,0.05625 0.577297,0.195913 0.673744,0.310408 0.123569,0.147007 0.161254,1.747087 0.128086,5.444853 l -0.04705,5.237041 -0.441104,0.656754 c -0.859764,1.27939 -0.553314,1.243312 -10.490421,1.246852 l -8.73712,0.0033 v -0.396016 c 0,-0.51416 -0.265062,-0.993952 -0.548927,-0.993952 -0.283869,0 -0.548275,0.479792 -0.548275,0.993952 v 0.396016 l -27.623536,-6.7e-4 C 3.9048244,36.531326 3.187737,36.5242 2.7090554,36.236617 2.4388905,36.074249 2.0157253,35.680533 1.7686896,35.361539 L 1.3197442,34.781241 v -5.473603 -5.47295 l 0.9632395,-0.29211 C 3.517891,23.16889 4.6666498,22.178404 5.2674574,20.968494 5.6299811,20.238436 5.7026072,19.892133 5.6981054,18.930268 5.687044,16.670459 4.4190768,15.028395 2.1111166,14.287246 L 1.3197442,14.033694 1.2733467,8.953487 C 1.2234662,3.5135446 1.2702107,3.0722648 1.9830332,2.2376042 2.714673,1.3809135 3.0370071,1.3253366 7.2592849,1.3253366 c 3.3111261,0 5.2405291,0.2429383 5.4579211,0.028754 C 12.911528,1.1626268 12.8376,0.68709827 12.697603,0.52089508 12.551116,0.34697769 10.461591,0.39913551 7.2168083,0.40065285 3.3157811,0.40211499 3.1775663,0.4125323 2.3986508,0.76987298 1.605825,1.1335935 1.0473473,1.7084905 0.55451129,2.6689053 0.33410386,3.098413 0.30095845,3.9318667 0.30095841,9.0358264 v 5.8722316 l 0.43130127,0.08299 c 0.23704917,0.04543 0.74680612,0.155234 1.13314592,0.243749 2.4030021,0.550577 3.6364073,3.344831 2.4348915,5.516734 -0.6921163,1.251098 -1.6500043,1.844809 -3.41185412,2.115991 l -0.58748457,0.09018 -0.0385557,4.973034 c -0.0542731,6.977855 -0.0669144,6.724517 0.36921999,7.446481 0.14219546,0.235388 1.0351508,1.162175 2.1231785,2.259759 H 48.002874 l 0.102597,-0.100637 14.855713,-0.07711 c 14.203122,-0.07382 14.875528,-0.09001 15.318385,-0.367913 0.787118,-0.493948 1.184468,-0.91597 1.575555,-1.672926 l 0.376408,-0.728636 V 28.829283 22.96816 l -0.509065,-0.09541 c -1.874597,-0.351227 -2.932997,-1.035123 -3.552354,-2.295699 -0.3696,-0.752241 -0.430471,-1.966876 -0.145073,-2.905404 0.382595,-1.258168 1.747896,-2.355316 3.169408,-2.547291 0.378306,-0.05108 0.760476,-0.137009 0.84888,-0.190817 0.104002,-0.06332 0.176012,-2.169036 0.204542,-5.9650267 L 80.292306,3.1008601 79.830947,2.4062037 C 79.683308,2.183653 78.914036,1.3678952 77.894009,0.3307299 Z m 17.65329,3.609207 c -1.446201,0 -2.892566,0.065571 -3.024988,0.1960462 -0.132536,0.1305886 -0.188207,1.0174027 -0.188204,3.0034248 0,2.5210674 0.02911,2.8345248 0.274464,2.9753251 0.156435,0.08977 1.431215,0.159662 2.96683,0.162065 2.243016,0.0039 2.732892,-0.03571 2.938073,-0.237869 0.205335,-0.2023475 0.246365,-0.6970568 0.246365,-2.9798998 0,-1.923355 -0.05542,-2.7928556 -0.187548,-2.9230461 C 52.954574,4.0055076 51.508212,3.9399369 50.062011,3.9399369 Z m -8.802464,0.010456 c -2.669756,0 -2.873679,0.020082 -3.024992,0.2986437 -0.09357,0.1722826 -0.162063,1.4094014 -0.162063,2.9230461 0,2.1797664 0.04114,2.665287 0.245709,2.8668463 0.204572,0.201532 0.697614,0.242443 2.909978,0.242443 1.536275,0 2.791976,-0.06725 2.966827,-0.159451 0.282705,-0.1490852 0.303218,-0.3501347 0.303218,-2.9805522 0,-1.9877664 -0.05565,-2.8747865 -0.188204,-3.0053855 C 44.177474,4.0053905 43.277035,3.9503927 41.259547,3.9503929 Z m 17.703608,0.3953596 c -0.183844,0.00117 -0.345204,0.1505623 -0.420192,0.4260735 -0.152209,0.5590501 -0.107418,2.4214486 0.066,2.7407232 0.08923,0.1642757 0.262977,0.2986434 0.386211,0.2986434 0.383669,0 0.548927,-0.5504887 0.548927,-1.8317235 0,-0.9017951 -0.06478,-1.2985281 -0.239827,-1.4709984 C 59.191771,4.3976264 59.073462,4.3450463 58.963155,4.3457525 Z M 40.823669,4.8698486 c 1.094281,-0.00434 2.422521,0.071132 2.545986,0.1927786 0.197552,0.1946346 0.274557,3.4274466 0.09279,3.8941274 -0.07985,0.205004 -0.415652,0.2437507 -2.089849,0.2437507 -1.097008,0 -2.041539,-0.045983 -2.099001,-0.1025976 -0.05746,-0.056615 -0.104558,-0.9874402 -0.104558,-2.0682856 0,-1.6495318 0.04023,-1.9804549 0.248326,-2.0591363 0.177622,-0.067159 0.749735,-0.098031 1.406302,-0.1006372 z m 8.286866,0.026794 c 0.268478,-9.702e-4 0.605164,0.00422 1.031201,0.013725 l 1.957846,0.043783 V 7.038773 9.1233958 l -2.058482,0.04313 c -1.773345,0.037017 -2.071775,0.00836 -2.155201,-0.2058482 -0.186551,-0.4789714 -0.105832,-3.5492617 0.10064,-3.8274717 0.128993,-0.1738257 0.318569,-0.2336401 1.123996,-0.2365633 z M 20.832204,5.5017709 c -4.170069,0 -4.684681,0.027643 -5.250112,0.2855739 -0.768915,0.350751 -1.393031,0.9872461 -1.71671,1.7506909 -0.277499,0.6545219 -0.411201,0.7027932 -2.137555,0.7704607 -1.465069,0.057423 -2.2766353,0.5084467 -2.7877741,1.5487635 -0.327939,0.6676741 -0.3326248,0.8057531 -0.3326248,10.4616671 0,9.705928 0.00264,9.790552 0.3378527,10.472781 0.2345101,0.477289 0.5703908,0.830089 1.0972042,1.15275 0.417531,0.25573 0.759352,0.497344 0.759352,0.537166 0,0.03979 -0.21191,0.310365 -0.470511,0.600554 -0.4623585,0.518844 -0.5716614,0.827884 -0.365299,1.031201 0.254742,0.250996 0.653563,0.04273 1.502366,-0.784836 l 0.910307,-0.88809 h 8.453504 8.453505 l 0.92599,0.903119 c 0.605195,0.590055 1.026784,0.883727 1.217446,0.847572 0.46417,-0.08808 0.430092,-0.518915 -0.08757,-1.099819 -0.26331,-0.295475 -0.479006,-0.569882 -0.479006,-0.609701 0,-0.0398 0.341818,-0.281436 0.759351,-0.537166 0.526812,-0.322661 0.862692,-0.675461 1.097206,-1.15275 0.335154,-0.682229 0.337851,-0.766853 0.337851,-10.472781 0,-9.655914 -0.0046,-9.793993 -0.332625,-10.4616671 C 32.213216,8.8169431 31.401653,8.3659206 29.936581,8.3084964 28.210229,8.2408303 28.076524,8.192555 27.799026,7.5380357 27.475348,6.7745909 26.851234,6.1380958 26.082317,5.7873448 25.516885,5.5294298 25.002276,5.5017709 20.832204,5.5017709 Z m 0,1.0756393 c 4.235105,0 4.660512,0.023963 5.063215,0.2855738 0.541702,0.3519077 0.943702,0.8960523 0.814245,1.1024318 -0.06152,0.098081 -2.199693,0.154223 -5.87746,0.154223 -3.677768,0 -5.815285,-0.056142 -5.876806,-0.154223 -0.129457,-0.2063795 0.271889,-0.7505241 0.813591,-1.1024318 0.402702,-0.2616088 0.828112,-0.2855738 5.063215,-0.2855738 z m -3.517719,2.7779719 c 1.014594,-9.034e-4 2.179064,0 3.517719,0 10.709245,0 10.290699,-0.03605 10.871405,0.9325259 0.229892,0.383444 0.256167,1.418119 0.256167,10.031019 0,10.551455 0.03681,10.139156 -0.946249,10.711303 -0.389423,0.226635 -1.436635,0.251866 -10.205502,0.248323 -10.72843,-0.0045 -10.26955,0.03492 -10.8491862,-0.93187 C 9.731538,29.967584 9.7046323,28.901107 9.7046323,20.318927 c 0,-8.6129 0.026268,-9.647575 0.2561668,-10.031019 C 10.468917,9.4404199 10.212325,9.3617526 17.314485,9.3553821 Z m 41.68069,0.154223 c -0.373808,0 -0.548274,0.5408939 -0.548274,1.6984119 0,0.605674 0.07284,1.236146 0.162063,1.400421 0.08923,0.164281 0.262977,0.298644 0.386211,0.298644 0.373809,0 0.548927,-0.54155 0.548927,-1.699065 0,-1.157518 -0.175118,-1.6984119 -0.548927,-1.6984119 z M 25.981026,10.456507 c -1.31648,1.96e-4 -3.048739,0.0072 -5.3416,0.01699 l -9.361851,0.03986 -0.490115,0.482927 c -0.9989823,0.984408 -0.64986,2.658984 0.646298,3.098833 0.395016,0.134032 2.958091,0.185973 9.398446,0.189512 8.28992,0.005 8.895827,-0.01338 9.493855,-0.281001 0.628131,-0.281082 1.16386,-1.0298 1.16386,-1.627181 0,-0.533865 -0.473979,-1.329647 -0.970428,-1.629795 -0.381197,-0.230466 -0.589023,-0.290735 -4.538465,-0.290148 z m -5.173001,1.060609 c 8.431994,0 8.922929,0.01504 9.168419,0.282305 0.304709,0.331737 0.336641,0.814788 0.07123,1.076293 -0.141935,0.139807 -2.407821,0.185591 -9.237688,0.185591 h -9.050138 l -0.243751,-0.34308 c -0.313977,-0.441659 -0.308053,-0.520899 0.06927,-0.892663 0.306102,-0.301628 0.52248,-0.308446 9.222658,-0.308446 z m 38.18715,3.088377 c -0.373808,0 -0.548274,0.540894 -0.548274,1.698411 0,0.605673 0.07284,1.23549 0.162063,1.399771 0.08923,0.164265 0.262977,0.298644 0.386211,0.298644 0.373809,0 0.548927,-0.540904 0.548927,-1.698415 0,-1.157517 -0.175118,-1.698411 -0.548927,-1.698411 z m -43.56992,0.617547 c -3.81903,0 -3.969026,0.01128 -4.386203,0.334585 -0.784249,0.607805 -0.863909,1.048236 -0.863909,4.761302 0,3.607049 0.07882,4.09557 0.761965,4.695304 0.184581,0.162043 0.600407,0.348524 0.923377,0.41431 0.322965,0.06581 2.106187,0.106981 3.963397,0.09149 3.738059,-0.03125 3.923916,-0.07531 4.545,-1.078907 0.279581,-0.451767 0.305361,-0.797657 0.305832,-4.091481 8.7e-4,-5.367821 0.24807,-5.126602 -5.249459,-5.126602 z m 6.813253,0 -0.585524,0.528668 -0.585524,0.528672 v 4.023517 4.024173 l 0.495342,0.488154 c 0.28542,0.281212 0.750849,0.54012 1.097204,0.610357 0.330802,0.06708 2.117942,0.108941 3.971239,0.09345 3.282947,-0.0275 3.383207,-0.03776 3.896742,-0.398628 0.885456,-0.622218 0.961932,-1.003387 0.961932,-4.802475 0,-5.295072 0.207822,-5.095887 -5.316114,-5.095887 z m 3.989536,1.080864 c 2.986633,0 3.552216,0.03627 3.76147,0.242444 0.209474,0.206396 0.246364,0.768459 0.246364,3.75951 0,3.210763 -0.0252,3.539255 -0.286881,3.772578 -0.248554,0.221633 -0.748038,0.255513 -3.761469,0.255513 -3.265865,0 -3.493656,-0.01884 -3.788263,-0.309096 -0.29446,-0.290119 -0.31302,-0.514626 -0.31302,-3.705926 0,-3.191294 0.01856,-3.415807 0.31302,-3.705923 0.294822,-0.29047 0.522587,-0.3091 3.828779,-0.3091 z m -10.79364,0.0027 c 2.741345,-0.002 3.520235,0.04316 3.76147,0.216955 0.285991,0.206038 0.304524,0.433325 0.304524,3.795451 0,3.362129 -0.01854,3.589417 -0.304524,3.795451 -0.241235,0.173773 -1.020125,0.21911 -3.76147,0.216958 -1.901469,-0.0013 -3.540829,-0.0548 -3.643189,-0.118935 -0.41073,-0.257323 -0.519521,-1.070482 -0.519521,-3.893474 0,-2.822989 0.108792,-3.636148 0.519521,-3.893471 0.10236,-0.06415 1.74172,-0.117546 3.643189,-0.118935 z m 50.207383,1.111579 c -0.437794,0.0059 -0.455477,1.140076 -0.455477,8.422139 0,5.173222 0.05627,8.037198 0.162063,8.23197 0.181445,0.334043 0.184838,0.335686 0.529979,0.205194 0.221837,-0.08386 0.248323,-0.968169 0.248323,-8.399263 0,-7.719138 -0.01947,-8.312829 -0.270542,-8.407761 -0.08085,-0.03058 -0.151802,-0.05312 -0.214346,-0.05228 z m 3.790225,0 c -0.06254,-10e-4 -0.133493,0.02172 -0.214345,0.05228 -0.25103,0.09493 -0.270543,0.688439 -0.270543,8.411027 0,6.502857 0.04273,8.326524 0.196047,8.387502 0.10775,0.04287 0.246824,0.08308 0.308444,0.08953 0.383227,0.0417 0.435878,-0.998616 0.435878,-8.518197 0,-7.282043 -0.0177,-8.41623 -0.455481,-8.422139 z m -10.436837,2.283283 c -0.373808,0 -0.548274,0.540894 -0.548274,1.698411 0,0.605673 0.07284,1.235496 0.162063,1.399771 0.195729,0.360358 0.707671,0.393325 0.839731,0.05424 0.157249,-0.403694 0.106957,-2.532971 -0.06731,-2.853778 -0.08923,-0.164275 -0.262981,-0.298644 -0.386212,-0.298644 z m -0.04771,5.184762 c -0.194012,0.0089 -0.36624,0.174661 -0.441104,0.468554 -0.174523,0.685089 0.007,2.688546 0.257474,2.844626 0.291313,0.181543 0.245639,0.189924 0.533245,-0.09345 0.3467,-0.341425 0.352234,-2.719663 0.0072,-3.059625 -0.11582,-0.114114 -0.240396,-0.165426 -0.356805,-0.160106 z m -17.678776,0.5522 c -3.417155,0.0013 -4.020024,0.05322 -4.079718,0.206499 -0.04987,0.128133 -0.04987,0.337807 0,0.465937 0.0796,0.204405 1.125498,0.228511 8.519506,0.193434 L 54.1365,26.263756 V 25.8782 25.491989 l -8.428018,-0.03986 c -1.848502,-0.0088 -3.300736,-0.01422 -4.439788,-0.01372 z m -28.88738,1.248157 c -0.280472,0.0017 -0.570052,0.06332 -0.856721,0.197355 -1.6629275,0.777485 -1.6837069,3.142213 -0.03398,3.877136 0.971494,0.432776 2.17922,0.03296 2.766209,-0.915535 0.889638,-1.437546 -0.36096,-3.168348 -1.875508,-3.158956 z m 16.832511,0.0033 c -0.287331,0.0091 -0.577884,0.08057 -0.855414,0.222185 -1.636053,0.834837 -1.636053,2.964529 0,3.799372 1.11012,0.566473 2.430673,0.0184 2.905402,-1.206337 0.253634,-0.654341 0.253634,-0.731694 0,-1.386046 -0.356047,-0.91858 -1.187995,-1.456486 -2.049988,-1.429174 z m -16.758014,1.180852 c 0.168008,-0.0027 0.333972,0.0381 0.477699,0.132656 0.57678,0.379457 0.565859,1.416614 -0.01699,1.636985 -0.773413,0.292411 -1.487989,-0.118597 -1.487989,-0.855414 0,-0.507622 0.523259,-0.906251 1.02728,-0.914227 z m 16.868453,0.02483 c 0.256079,0.01345 0.499178,0.10593 0.65218,0.272503 0.342563,0.372942 0.329422,0.996612 -0.02745,1.314816 -0.36144,0.322289 -1.178482,0.331146 -1.444206,0.01569 -0.301451,-0.357875 -0.250196,-1.158936 0.08953,-1.403688 0.205101,-0.147767 0.473866,-0.212766 0.729945,-0.199313 z M 45.65359,28.96861 c -7.041763,-0.002 -8.196581,0.02948 -8.363321,0.227411 -0.106506,0.126309 -0.152277,0.335415 -0.101945,0.464632 0.08061,0.206991 1.094472,0.229957 8.517545,0.194738 8.105457,-0.03842 8.428974,-0.05074 8.483565,-0.330011 0.03122,-0.159691 -0.03865,-0.349578 -0.154876,-0.422153 -0.116228,-0.07255 -3.887579,-0.133229 -8.380968,-0.134617 z m 13.329821,1.078251 c -0.193357,0.02208 -0.382113,0.142784 -0.437835,0.347657 -0.154464,0.567929 -0.111621,2.428995 0.06339,2.751177 0.08923,0.164285 0.262977,0.298644 0.386211,0.298644 0.123235,0 0.296981,-0.134359 0.386212,-0.298644 0.174245,-0.320807 0.224533,-2.450739 0.06731,-2.85443 -0.07402,-0.190044 -0.271924,-0.266493 -0.465284,-0.244404 z m -13.310217,2.625711 c -7.348813,0 -8.405885,0.02881 -8.485523,0.233296 -0.05004,0.128471 -0.0038,0.337001 0.102598,0.46332 0.291514,0.346075 16.474995,0.346075 16.766506,0 0.106528,-0.126316 0.152624,-0.334849 0.102597,-0.46332 -0.07964,-0.204472 -1.137366,-0.233296 -8.486178,-0.233296 z" />
    <path
       style="fill:#d7e057;fill-opacity:1;stroke-width:0.448505"
       d="m 22.469483,23.903882 c -0.404444,-0.440324 -0.416799,-6.792084 -0.01399,-7.18896 0.222734,-0.219457 0.8126,-0.259109 3.85432,-0.259109 3.262945,0 3.602339,0.0264 3.711602,0.288553 0.06615,0.1587 0.120261,1.779655 0.120261,3.602126 0,2.566162 -0.05181,3.375086 -0.229678,3.586251 -0.200127,0.23758 -0.675919,0.272669 -3.69762,0.272669 -3.147148,0 -3.493557,-0.02791 -3.744902,-0.30153 z"
       id="path9836" />
    <path
       style="fill:#d7e057;fill-opacity:1;stroke-width:0.448505"
       d="m 11.613468,23.834421 c -0.303897,-0.524204 -0.303897,-6.483414 0,-7.007617 0.212448,-0.366457 0.258566,-0.370991 3.773761,-0.370991 2.544731,0 3.615902,0.05639 3.759505,0.197864 0.28429,0.280102 0.28429,7.07377 0,7.353871 -0.143603,0.141489 -1.214774,0.197864 -3.759505,0.197864 -3.515195,0 -3.561313,-0.0043 -3.773761,-0.370991 z"
       id="path9875" />
    <path
       style="fill:#d7e057;fill-opacity:1;stroke-width:0.448505"
       d="m 11.585101,12.640656 c -0.240688,-0.338571 -0.239708,-0.396841 0.01127,-0.670081 0.259966,-0.283028 0.760358,-0.296953 9.222361,-0.256625 8.74599,0.04168 8.9525,0.05009 9.170342,0.373382 0.14594,0.216584 0.169555,0.415773 0.06843,0.577099 -0.133275,0.212599 -1.39138,0.253255 -9.18161,0.296695 l -9.027174,0.05037 z"
       id="path9914" />
    <path
       style="fill:#d7e057;fill-opacity:1;stroke-width:0.158571"
       d="m 40.335276,9.1433628 c -0.54242,-0.016035 -1.008364,-0.050975 -1.035431,-0.077645 -0.07778,-0.076659 -0.09761,-3.5428217 -0.02185,-3.8200391 0.05698,-0.208489 0.09087,-0.2421141 0.28491,-0.2826955 0.33138,-0.069299 3.007905,-0.043185 3.411842,0.033296 0.193363,0.036609 0.371586,0.098472 0.396052,0.1374807 0.09245,0.147376 0.138596,0.8773956 0.139232,2.2024365 3.97e-4,0.7534724 -0.01958,1.4411123 -0.04429,1.528091 -0.03364,0.1183514 -0.100648,0.173024 -0.266254,0.2172778 -0.273016,0.072953 -1.552591,0.1005589 -2.864212,0.0618 z"
       id="path20122" />
    <path
       style="fill:#d7e057;fill-opacity:1;stroke-width:0.158571"
       d="m 48.146964,9.0370164 c -0.07931,-0.014935 -0.16153,-0.090847 -0.196617,-0.181522 -0.15783,-0.4079023 -0.104694,-3.1733208 0.07049,-3.6684407 0.04288,-0.1211841 0.123916,-0.2013214 0.245982,-0.2432471 0.196469,-0.067478 3.324295,-0.089848 3.647864,-0.026088 l 0.184899,0.036432 v 2.0242695 2.0242681 l -0.576886,0.037646 c -0.62638,0.040871 -3.154337,0.038393 -3.375729,-0.00329 z"
       id="path20161"
       inkscape:transform-center-x="2.2489583"
       inkscape:transform-center-y="-0.33072916" />
    <path
       style="fill:#d7e057;fill-opacity:1;stroke-width:0.112126"
       d="m 12.056869,29.655916 c -0.6544,-0.245801 -0.806016,-1.077511 -0.275035,-1.508737 0.439807,-0.357188 1.053678,-0.323032 1.346253,0.07491 0.337014,0.45838 0.24459,1.158285 -0.181372,1.37346 -0.203324,0.102709 -0.689334,0.135686 -0.889846,0.06033 z"
       id="path26159" />
    <path
       style="fill:#d7e057;fill-opacity:1;stroke-width:0.112126"
       d="m 28.802875,29.66119 c -0.319958,-0.116442 -0.455398,-0.352275 -0.458166,-0.797777 -0.0029,-0.472498 0.110384,-0.691727 0.432702,-0.837111 0.66719,-0.30095 1.362246,0.04734 1.418073,0.710659 0.03254,0.38656 -0.130745,0.686023 -0.466981,0.85646 -0.201173,0.101975 -0.726045,0.1404 -0.925628,0.06779 z"
       id="path26198" />
    <path
       style="fill:#686cf3;fill-opacity:1;stroke-width:0.158571"
       d="M 12.063193,31.177932 C 11.231188,31.131157 10.692992,31.03724 10.44763,30.895981 10.22638,30.768595 9.9492441,30.332577 9.8647752,29.978977 9.7744404,29.600825 9.7225155,12.823591 9.8075146,11.477325 c 0.050703,-0.80306 0.077601,-0.960353 0.2073814,-1.212691 0.272344,-0.5295239 0.519661,-0.6583966 1.492406,-0.7776662 0.766471,-0.093983 15.16652,-0.1405435 17.230493,-0.055717 2.117237,0.087015 2.462455,0.160807 2.765067,0.5910412 0.307488,0.437166 0.328266,0.58391 0.391478,2.764549 0.07522,2.594607 0.02436,15.868361 -0.06376,16.640059 -0.0891,0.780371 -0.203094,1.126389 -0.434584,1.31918 -0.369716,0.307895 -0.625317,0.376071 -1.626798,0.433887 -1.075096,0.06205 -16.597256,0.06026 -17.706001,-0.0022 z m 1.190684,-0.426375 c 0.508246,-0.239654 0.845976,-0.566466 1.091761,-1.056449 0.188823,-0.376428 0.213938,-0.477943 0.211805,-0.856051 -0.0028,-0.484372 -0.101849,-0.811091 -0.35682,-1.176222 -0.373831,-0.535337 -0.933025,-0.894476 -1.504649,-0.966347 -1.653222,-0.207865 -2.8986218,1.401526 -2.29525,2.966079 0.211438,0.548257 0.670889,0.974892 1.298245,1.20552 0.359959,0.132328 1.153234,0.07288 1.554908,-0.11653 z m 16.891327,0.0035 c 0.587354,-0.296283 0.921872,-0.680518 1.179414,-1.354662 0.176468,-0.461924 0.181402,-0.66519 0.02689,-1.107678 -0.170285,-0.487651 -0.368582,-0.793551 -0.711076,-1.096948 -1.167972,-1.034631 -3.065143,-0.418713 -3.464526,1.124769 -0.269601,1.041921 0.363259,2.140789 1.458854,2.533074 0.401303,0.143691 1.123773,0.09657 1.510447,-0.09851 z M 19.10115,25.410084 c 0.637417,-0.138427 0.979358,-0.401648 1.306417,-1.005649 0.251791,-0.465001 0.28999,-0.99985 0.290555,-4.06829 6.61e-4,-3.464864 -0.0649,-4.015094 -0.538471,-4.521297 -0.532455,-0.569135 -1.023951,-0.624491 -5.286004,-0.595385 -2.656708,0.01815 -3.294463,0.03766 -3.473443,0.106464 -0.330788,0.127097 -0.74133,0.494804 -0.902647,0.808459 -0.275167,0.535014 -0.298138,0.856511 -0.298138,4.17261 0,3.220985 0.02514,3.617982 0.262089,4.138992 0.23451,0.515645 0.861385,0.932966 1.537585,1.023598 0.546638,0.07327 6.729225,0.02145 7.102057,-0.05947 z m 10.45731,0.05861 c 0.563863,-0.06392 0.867447,-0.199428 1.262854,-0.563834 0.334614,-0.308382 0.49717,-0.653597 0.586645,-1.245832 0.03633,-0.240471 0.08185,-1.525891 0.101178,-2.856493 0.05681,-3.913285 -0.06635,-4.703923 -0.809339,-5.195562 -0.524379,-0.346986 -0.670393,-0.358695 -4.761839,-0.381775 l -3.727548,-0.02102 -0.572019,0.511074 -0.572018,0.511081 -0.0048,4.058706 -0.0048,4.058714 0.43053,0.402931 c 0.484136,0.453107 0.866529,0.65793 1.344493,0.720151 0.487938,0.06349 6.168687,0.06508 6.726791,0.0021 z M 29.458419,14.217366 c 0.942304,-0.102279 1.488132,-0.450159 1.87874,-1.197386 0.314102,-0.600872 0.149125,-1.335943 -0.43988,-1.959902 -0.410181,-0.434523 -0.642139,-0.51765 -1.637532,-0.58684 -0.537672,-0.03738 -3.903296,-0.04454 -9.416037,-0.02003 l -8.57928,0.03813 -0.342642,0.331597 c -0.620283,0.600285 -0.851881,1.285267 -0.670463,1.982974 0.199732,0.768141 0.685598,1.224791 1.446535,1.359558 0.847491,0.150099 16.436259,0.195661 17.760559,0.05194 z"
       id="path48382" />
    <path
       style="fill:#686cf3;fill-opacity:1;stroke-width:0.158571"
       d="m 16.264082,8.0367784 c -0.60203,-0.024444 -1.141192,-0.047788 -1.198141,-0.051885 -0.410629,-0.029515 0.443414,-1.0571561 1.030735,-1.2402512 0.303241,-0.094539 4.433629,-0.1612762 7.009336,-0.1132552 2.125446,0.039619 2.319587,0.051772 2.565693,0.1605857 0.47652,0.2106907 1.005846,0.7592376 1.005846,1.0423694 0,0.1097776 -0.04052,0.1363324 -0.251461,0.1647752 -0.405059,0.054617 -8.963314,0.086345 -10.162008,0.037672 z"
       id="path48421" />
    <path
       style="fill:#686cf3;fill-opacity:1;stroke-width:0.448505"
       d="m 2.9644254,36.386331 c -0.2933778,-0.08363 -0.7289853,-0.588956 -1.0108768,-0.9259 l -0.633781,-0.679065 -0.042384,-5.369594 0.042384,-5.577359 0.8682296,-0.178544 C 3.8924248,23.305375 5.225864,21.703639 5.6455475,20.175481 6.0832391,18.581751 5.3540675,16.262196 4.1030582,15.268709 3.7723433,15.006068 3.0569194,14.613254 2.5132263,14.395776 L 1.3197676,14.033444 1.320723,11.229627 C 1.3212518,9.7039965 1.1634374,7.3968938 1.2061969,6.0144476 1.2917592,3.2481679 1.3881951,2.3650856 2.2768156,1.7244195 2.7230168,1.402722 3.1898819,1.3550362 8.3580295,1.2529383 15.300193,1.1157965 12.170127,1.2921274 36.863372,1.3939888 l 21.448577,0.088482 0.111295,0.4369128 c 0.06122,0.240302 0.188459,0.5285174 0.282767,0.6404764 0.261983,0.3110169 0.759648,-0.031855 0.8891,-0.6125596 L 59.705685,1.451274 h 8.784309 8.784308 l 0.721254,0.4889261 c 0.39669,0.2689104 0.777888,0.6213509 0.847104,0.7832038 0.1965,0.4594842 0.468124,8.3134951 0.339948,9.8295391 l -0.11481,1.358 -0.989939,0.378202 c -1.193665,0.456034 -2.377468,1.532777 -2.886133,2.625119 -0.524033,1.12534 -0.511812,3.136866 0.02511,4.13577 0.588493,1.094816 1.739616,2.10268 2.862132,2.505942 l 0.97584,0.350565 0.119237,1.410358 c 0.06558,0.775695 0.06572,3.198737 4.03e-4,5.384531 -0.106642,3.562742 -0.153691,4.030527 -0.454387,4.518479 -0.71078,1.153399 -0.236596,1.099206 -10.095298,1.153729 l -8.892504,0.04922 -0.153296,-0.52665 c -0.192773,-0.662249 -0.672189,-1.000074 -0.91316,-0.643467 -0.09192,0.13603 -0.212154,0.451371 -0.267183,0.70076 L 58.298504,36.40693 30.904041,36.541777 C 22.041676,36.585394 3.2793543,36.476131 2.9644077,36.38636 Z m 63.0918236,-2.45357 c 0.144336,-0.511081 0.187867,-15.268292 0.04708,-15.961833 -0.129144,-0.636228 -0.500605,-0.791147 -0.758514,-0.316339 -0.222198,0.409057 -0.287641,15.738589 -0.07007,16.412079 0.158529,0.490713 0.627813,0.410305 0.781504,-0.133907 z m 3.746095,-0.205239 c 0.173603,-1.184587 0.0204,-16.082618 -0.167266,-16.267402 -0.105377,-0.103759 -0.2625,-0.109095 -0.418375,-0.0142 -0.214651,0.130635 -0.256135,1.270166 -0.296069,8.132285 -0.02941,5.050435 0.01515,8.140018 0.121374,8.415228 0.261429,0.677471 0.641564,0.544534 0.760337,-0.265897 z m -58.320277,-0.37099 1.001198,-0.906868 h 8.300834 8.300835 l 1.017108,0.906868 c 0.559409,0.498777 1.146833,0.906866 1.305385,0.906866 0.473338,0 0.499484,-0.436957 0.06399,-1.069248 -0.225113,-0.326834 -0.404695,-0.646602 -0.399073,-0.710588 0.0056,-0.064 0.325683,-0.340486 0.711242,-0.614432 1.348883,-0.958413 1.28619,-0.397881 1.286484,-11.502593 C 33.070464,9.6722709 33.084927,9.8511107 32.142783,8.9903784 31.614879,8.5080889 30.597565,8.2115627 29.470852,8.2115627 c -0.997786,0 -1.344301,-0.1946862 -1.753659,-0.9852713 C 27.272981,6.368393 26.466096,5.789141 25.402093,5.5643162 24.842849,5.4461417 22.982032,5.3998343 20.223052,5.4354194 16.242656,5.4867611 15.872742,5.5165039 15.333594,5.8285603 14.810455,6.1313524 14.055143,6.9748865 13.561688,7.8074238 13.419678,8.0470151 13.074751,8.1370186 11.914421,8.2372563 10.15675,8.389095 9.5489465,8.6920452 8.9718109,9.7039573 L 8.553429,10.43751 v 9.893106 c 0,11.154028 -0.090427,10.369746 1.3339372,11.569319 l 0.7569398,0.637476 -0.438868,0.607732 c -0.4506577,0.624047 -0.4428346,1.118255 0.0177,1.118255 0.141753,0 0.708272,-0.408089 1.258929,-0.906866 z m 42.28581,0.139939 c 0.553328,-0.132492 0.622251,-0.535503 0.123523,-0.722319 -0.462118,-0.173106 -15.786681,-0.225047 -16.428125,-0.05567 -0.411214,0.108576 -0.498627,0.4583 -0.167351,0.669545 0.354201,0.225866 5.134772,0.345351 10.752289,0.268745 2.945377,-0.04018 5.519222,-0.112294 5.719658,-0.160293 z m 5.794383,-1.238136 c 0.168061,-1.375419 -0.01782,-2.179938 -0.520342,-2.252161 -0.518199,-0.07447 -0.751056,0.622037 -0.657805,1.967576 0.08855,1.277521 0.195489,1.501908 0.683218,1.433432 0.311838,-0.04377 0.378939,-0.19953 0.494929,-1.148847 z m -5.393634,-2.557688 c 0.09142,-0.09008 0.122424,-0.276241 0.06888,-0.413699 -0.08293,-0.212937 -0.914316,-0.26736 -5.617848,-0.367756 -5.015248,-0.107059 -10.193743,-0.03135 -11.15638,0.163013 -0.558321,0.112749 -0.497352,0.68641 0.08368,0.787301 0.901415,0.156518 16.451765,-0.0014 16.621671,-0.168859 z m 5.3546,-2.073876 c 0.176408,-0.644772 0.108602,-2.272127 -0.109158,-2.619257 -0.170465,-0.271751 -0.728235,-0.140844 -0.922318,0.216466 -0.196315,0.361407 -0.126505,2.226479 0.105364,2.815005 0.2205,0.559665 0.721174,0.336813 0.926101,-0.412214 z m -5.366699,-1.77251 v -0.49466 l -8.158355,0.0022 c -4.487094,0.0014 -8.327796,0.04699 -8.534892,0.101671 -0.356353,0.09408 -0.50752,0.536486 -0.264971,0.775457 2.043043,-0.04139 16.958218,0.771253 16.958218,-0.384622 z m 5.187874,-2.799953 c 0.369516,-0.230729 0.317845,-2.893411 -0.06347,-3.269073 -0.250122,-0.246433 -0.294089,-0.244776 -0.564131,0.02131 -0.562671,0.554385 -0.334174,3.421625 0.271523,3.407062 0.05773,-0.0014 0.217981,-0.07307 0.356044,-0.159267 z m 0.01037,-5.209245 c 0.342752,-0.406904 0.294752,-2.808167 -0.06319,-3.160835 -0.264234,-0.260344 -0.300155,-0.259669 -0.574715,0.01075 -0.228913,0.225483 -0.292861,0.569601 -0.292861,1.575887 0,1.588636 0.378857,2.22939 0.930767,1.57418 z m -0.04955,-5.057939 c 0.245584,-0.299322 0.384392,-1.748545 0.24084,-2.514499 -0.103859,-0.5541744 -0.188295,-0.6595412 -0.528508,-0.6595412 -0.505608,0 -0.74383,0.7493842 -0.638903,2.0098472 0.09393,1.128387 0.518389,1.661693 0.926571,1.164193 z M 44.316753,10.058095 c 0.160002,-0.1581097 0.217098,-0.9169882 0.217098,-2.8854886 0,-1.4690265 -0.05411,-2.800805 -0.120261,-2.9595078 -0.108033,-0.25922 -0.416374,-0.288548 -3.033661,-0.288548 -2.131045,0 -2.957762,0.05535 -3.078603,0.2061066 -0.235705,0.2940628 -0.408246,3.242407 -0.274717,4.694253 0.09516,1.0346264 0.16866,1.2518578 0.465166,1.3747568 0.567556,0.235247 5.566597,0.113748 5.824978,-0.141572 z m 8.78035,0.07757 c 0.220909,-0.2176813 0.275154,-5.476621 0.0606,-5.871684 -0.175297,-0.322718 -0.327985,-0.3394294 -3.101241,-0.3394294 -2.712539,0 -2.928997,0.022345 -3.090101,0.3189307 -0.196603,0.3619438 -0.236583,5.4289666 -0.04516,5.7239728 0.06763,0.1042139 0.311221,0.2264539 0.541329,0.2716409 0.681039,0.133737 5.483383,0.04559 5.63461,-0.10343 z m 6.254102,-2.5092778 c 0.341632,-0.405578 0.314499,-2.79559 -0.03569,-3.1410387 -0.43315,-0.4273186 -0.7712,-0.172469 -0.900809,0.6790939 -0.192855,1.2670652 0.124687,2.7173508 0.594968,2.7173508 0.0695,0 0.223181,-0.1149372 0.341504,-0.255406 z"
       id="path48729"
       sodipodi:nodetypes="sscccsssscssssscssscccssscsssscscsscssccssssssssscssssscscssssscssssssssscsscssssssssssssssssssssssssscccscsccccsssssssssssssssssssssssssssssssssscssss" />
    <path
       style="fill:#f16c7a;fill-opacity:1;stroke-width:0.354403"
       d="m 11.619417,31.085106 c -0.181828,-0.02906 -0.52039,-0.08295 -0.75236,-0.119802 -0.293285,-0.04656 -0.499944,-0.194643 -0.67841,-0.486022 C 9.9450978,30.081647 9.9280171,29.677912 9.8539714,22.568594 9.8110549,18.448175 9.818807,14.013062 9.8711884,12.712792 9.9775707,10.072282 10.029999,9.9236821 10.944988,9.6692675 11.604823,9.4857993 26.225035,9.3553206 28.866715,9.5093242 l 2.106005,0.1227775 0.360564,0.3975963 c 0.308813,0.340529 0.37339,0.553618 0.44992,1.484655 0.1581,1.923313 0.01879,18.369834 -0.158962,18.767104 -0.0865,0.193315 -0.320892,0.457154 -0.520876,0.58631 -0.341023,0.220233 -0.947233,0.235916 -9.758483,0.252481 -5.167179,0.0097 -9.54364,-0.0057 -9.725467,-0.03515 z m 1.870978,-0.383402 c 0.471594,-0.240278 0.872204,-0.760557 1.059253,-1.375678 0.215927,-0.710079 -0.03863,-1.475987 -0.695805,-2.093497 -0.914168,-0.858994 -2.060317,-0.830777 -2.97793,0.07331 -0.436857,0.430422 -0.573628,0.676612 -0.648244,1.166851 -0.166252,1.092313 0.359719,1.99834 1.410943,2.430462 0.375699,0.154439 1.364387,0.04685 1.851783,-0.20145 z m 16.2935,0.212779 c 0.550653,-0.125889 1.185361,-0.641466 1.484725,-1.206045 0.500268,-0.943483 -0.01383,-2.336666 -1.043476,-2.827767 -0.701853,-0.334754 -1.183875,-0.341082 -1.890657,-0.02482 -0.736547,0.329567 -1.144703,0.928697 -1.216882,1.786255 -0.07723,0.917599 0.374587,1.720003 1.193351,2.119311 0.631141,0.307808 0.744548,0.319589 1.472939,0.153076 z M 19.030583,25.433882 c 0.760851,-0.142163 1.090219,-0.36703 1.429283,-0.975774 0.18821,-0.337911 0.217879,-0.905683 0.217879,-4.16959 0,-5.445684 0.379711,-5.081307 -5.29515,-5.081307 -4.497778,0 -4.490849,-0.0014 -4.9615,1.019903 -0.225446,0.489229 -0.250708,0.888787 -0.252658,3.996263 -0.0012,1.898976 0.05663,3.66122 0.128497,3.916105 0.153753,0.545308 0.730617,1.131403 1.270159,1.290484 0.540185,0.159266 6.615021,0.162452 7.46349,0.0035 z m 10.958956,0.0043 c 0.523295,-0.147867 1.005094,-0.557017 1.307767,-1.110577 0.181324,-0.331619 0.214497,-0.924085 0.218852,-3.908695 0.0054,-3.755403 -0.05469,-4.198953 -0.6436,-4.744048 -0.456118,-0.422193 -1.519506,-0.527087 -5.373639,-0.530079 l -3.377606,-0.0029 -0.556486,0.558667 -0.556486,0.558661 0.0049,4.099205 0.0049,4.099204 0.589813,0.456012 c 0.324398,0.250803 0.723819,0.494143 0.887602,0.540739 0.481326,0.136956 7.001534,0.122626 7.493771,-0.0165 z m 0.358914,-11.366225 c 1.351376,-0.728948 1.573303,-2.08523 0.507714,-3.102821 -0.456452,-0.435894 -0.479711,-0.442024 -2.014144,-0.530991 -0.853798,-0.04951 -5.182303,-0.05902 -9.6189,-0.02117 -8.959179,0.07647 -8.305454,0.0042 -8.807923,0.974158 -0.4582283,0.884589 -0.228052,2.070152 0.492193,2.535125 0.550894,0.355638 1.834927,0.400908 10.894378,0.384105 7.413533,-0.01377 8.16927,-0.03486 8.546682,-0.238413 z"
       id="path69990" />
    <path
       style="fill:#686cf3;fill-opacity:1;stroke-width:0.1253"
       d="m 16.131982,8.0052298 c -0.641396,-0.020107 -1.087461,-0.05291 -1.11714,-0.082159 -0.08578,-0.084512 0.05854,-0.3317825 0.38321,-0.6566478 0.449052,-0.4493195 0.589648,-0.5061204 1.362978,-0.5506562 2.059016,-0.1185791 8.271971,-0.084233 8.745616,0.048357 0.566522,0.1585789 1.380799,1.0438705 1.082276,1.1766672 -0.188521,0.083867 -8.252406,0.1335542 -10.45694,0.064443 z"
       id="path70068" />
    <path
       style="fill:#686cf3;fill-opacity:1;stroke-width:0.523482"
       d="m 37.89361,35.581669 c -1.143976,-0.90516 -1.538983,-1.502582 -1.626341,-2.458098 -0.129139,-1.41345 -0.168415,-13.954993 -0.05188,-16.56303 0.201384,-4.506699 1.927289,-5.387384 9.246397,-4.718594 3.426135,0.31363 7.179828,0.850355 8.341538,1.194573 l 2.112195,0.625961 -0.01087,6.158582 c -0.01012,5.690545 -0.0202,6.327762 -0.132966,8.387943 -0.06715,1.225178 -0.267933,3.245735 -0.44628,4.487335 -0.314651,2.190644 -0.40146,2.279503 -2.927574,2.992681 C 49.022,36.641337 39.142196,36.567415 37.89369,35.574199 Z"
       id="path92580" />
    <path
       style="fill:#686cf3;fill-opacity:1;stroke-width:0.0220901"
       d="m 47.03861,26.467796 c -1.388015,-0.01474 -3.051673,-0.05039 -4.898786,-0.104984 -0.232599,-0.0068 -0.616807,-0.01822 -0.853796,-0.0252 -0.23699,-0.007 -0.456023,-0.01361 -0.486744,-0.01469 -0.03072,-0.0011 0.633563,-0.0029 1.476188,-0.0039 0.842624,-0.0011 1.903685,-0.004 2.357914,-0.0066 2.020232,-0.01138 8.238845,-0.03828 8.314531,-0.03595 l 0.08378,0.0025 -0.155599,0.01898 c -0.674431,0.0823 -1.599767,0.133887 -2.896522,0.161483 -0.553721,0.01176 -2.182448,0.0164 -2.94097,0.0083 z"
       id="path92619" />
    <path
       style="fill:#686cf3;fill-opacity:1;stroke-width:0.0220901"
       d="m 49.092085,26.285406 c 0.01877,-0.0018 0.0475,-0.0018 0.06384,5.4e-5 0.01634,0.0019 8.86e-4,0.0033 -0.03412,0.0033 -0.03511,-3e-5 -0.04847,-0.0015 -0.0297,-0.0033 z"
       id="path92658" />
    <path
       style="fill:#686cf3;fill-opacity:1;stroke-width:0.0220901"
       d="m 54.137408,25.698052 -5.41e-4,-0.211817 -0.22542,-2e-6 c -0.123978,-3e-6 -2.196727,-0.0097 -4.606107,-0.02176 -2.521027,-0.01252 -5.507833,-0.02232 -7.03583,-0.02308 l -2.655142,-0.0014 -3e-6,-0.01788 -3e-6,-0.01788 0.385005,-0.0056 c 1.216447,-0.01755 2.504486,-0.02323 6.772513,-0.02988 2.604677,-0.004 5.330937,-0.0076 6.058359,-0.008 l 1.322585,-5.7e-4 -5.41e-4,0.257956 c -3.62e-4,0.141875 -0.0037,0.265505 -0.0075,0.274733 -0.004,0.01 -0.0071,-0.06894 -0.0075,-0.195039 z"
       id="path92697" />
    <path
       style="fill:#686cf3;fill-opacity:1;stroke-width:0.0220901"
       d="m 54.136849,25.526343 v -0.03819 l -0.233399,-0.0049 c -0.128369,-0.0028 -1.253165,-0.009 -2.499547,-0.01399 -1.246381,-0.0049 -2.995066,-0.01252 -3.885966,-0.01678 -0.8909,-0.0042 -3.033666,-0.01037 -4.761705,-0.01352 -2.475859,-0.0046 -3.141889,-0.008 -3.141889,-0.0161 0,-0.01568 0.148927,-0.01968 1.077219,-0.02892 0.937531,-0.0094 6.704279,-0.02385 10.7752,-0.02713 l 2.688079,-0.0021 -0.0051,0.0958 c -0.0051,0.09657 -0.01296,0.13668 -0.01296,0.06595 z"
       id="path92736" />
    <rect
       style="fill:#686cf3;stroke-width:1.16432"
       id="rect1734"
       width="34.893524"
       height="34.888748"
       x="35.075321"
       y="1.5181789"
       ry="0.011854157" />
    <text
       xml:space="preserve"
       style="font-size:11.2889px;line-height:1.25;font-family:Comfortaa;-inkscape-font-specification:Comfortaa;stroke-width:0.14894"
       x="36.516792"
       y="22.141987"
       id="text81854"
       transform="matrix(0.97057446,-0.00304462,0.00378087,1.0303058,0,0)"><tspan
         sodipodi:role="line"
         id="tspan81852"
         style="font-style:normal;font-variant:normal;font-weight:bold;font-stretch:normal;font-size:11.2889px;font-family:Comfortaa;-inkscape-font-specification:'Comfortaa Bold';fill:#ffffff;stroke-width:0.14894"
         x="36.516792"
         y="22.141987">BMCIT</tspan></text>
  </g>
</svg>
